<svg width="42" height="42" viewBox="0 0 42 42" fill="none" xmlns="http://www.w3.org/2000/svg">
<circle cx="21" cy="20" r="2" stroke="#CBD5E0" stroke-width="2"/>
<path d="M21 22L21 41" stroke="#CBD5E0" stroke-width="2" stroke-linecap="round"/>
<path d="M17 41H25" stroke="#CBD5E0" stroke-width="2" stroke-linecap="round"/>
<path d="M23 10C23 12.4077 22.6732 14.546 22.1726 16.0477C21.9206 16.8038 21.6425 17.3436 21.3823 17.6738C21.2545 17.8359 21.1506 17.9225 21.0814 17.9649C21.0485 17.9852 21.0264 17.9935 21.0153 17.9969C21.0049 18.0001 21.0007 18 21 18H20.9999C20.999 18 20.9948 18 20.9847 17.9969C20.9736 17.9935 20.9515 17.9852 20.9186 17.9649C20.8494 17.9225 20.7455 17.8359 20.6177 17.6738C20.3575 17.3436 20.0794 16.8038 19.8274 16.0477C19.3268 14.546 19 12.4077 19 10C19 7.59229 19.3268 5.45402 19.8274 3.95227C20.0794 3.19616 20.3575 2.65642 20.6177 2.32624C20.7455 2.16408 20.8494 2.07752 20.9186 2.03507C20.9515 2.01483 20.9736 2.00645 20.9847 2.00305C20.9948 1.99998 20.999 2 20.9999 2L21 2L21.0001 2C21.001 2 21.0052 1.99998 21.0153 2.00305C21.0264 2.00645 21.0485 2.01483 21.0814 2.03507C21.1506 2.07752 21.2545 2.16408 21.3823 2.32624C21.6425 2.65642 21.9206 3.19616 22.1726 3.95227C22.6732 5.45402 23 7.59229 23 10Z" stroke="#CBD5E0" stroke-width="2"/>
<path d="M12.2734 26.3657C14.4504 25.3372 16.2441 24.1283 17.3881 23.0341C17.9641 22.4833 18.3333 22.0013 18.5207 21.625C18.6128 21.4401 18.6466 21.3092 18.6555 21.2285C18.6597 21.1901 18.6578 21.1666 18.6561 21.1551C18.6546 21.1443 18.6527 21.1406 18.6524 21.1399L18.6524 21.1399C18.652 21.1391 18.6502 21.1352 18.6431 21.1274C18.6353 21.1188 18.6183 21.1024 18.5859 21.0813C18.518 21.0369 18.3953 20.9799 18.1941 20.9336C17.7844 20.8394 17.1776 20.8185 16.3863 20.9136C14.8146 21.1025 12.7417 21.7205 10.5647 22.749C8.38771 23.7775 6.59395 24.9864 5.44995 26.0806C4.87397 26.6314 4.50474 27.1134 4.31736 27.4897C4.22533 27.6745 4.19147 27.8055 4.18263 27.8862C4.17841 27.9246 4.18024 27.9481 4.18193 27.9596C4.18346 27.9701 4.18529 27.9739 4.18568 27.9747L4.1857 27.9748L4.18573 27.9748C4.18611 27.9756 4.18791 27.9795 4.195 27.9873C4.20283 27.9959 4.21981 28.0122 4.2522 28.0334C4.32012 28.0778 4.44279 28.1348 4.644 28.1811C5.05369 28.2753 5.66049 28.2962 6.4518 28.2011C8.02348 28.0122 10.0964 27.3942 12.2734 26.3657Z" stroke="#CBD5E0" stroke-width="2"/>
<path d="M29.5647 26.3657C27.3877 25.3372 25.594 24.1283 24.45 23.0341C23.874 22.4833 23.5047 22.0013 23.3174 21.625C23.2253 21.4401 23.1915 21.3092 23.1826 21.2285C23.1784 21.1901 23.1802 21.1666 23.1819 21.1551C23.1835 21.1443 23.1854 21.1406 23.1857 21.1399L23.1857 21.1399C23.1861 21.1391 23.1879 21.1352 23.195 21.1274C23.2028 21.1188 23.2198 21.1024 23.2522 21.0813C23.3201 21.0369 23.4428 20.9799 23.644 20.9336C24.0537 20.8394 24.6605 20.8185 25.4518 20.9136C27.0235 21.1025 29.0964 21.7205 31.2734 22.749C33.4504 23.7775 35.2441 24.9864 36.3881 26.0806C36.9641 26.6314 37.3334 27.1134 37.5207 27.4897C37.6128 27.6745 37.6466 27.8055 37.6555 27.8862C37.6597 27.9246 37.6578 27.9481 37.6562 27.9596C37.6546 27.9701 37.6528 27.9739 37.6524 27.9747L37.6524 27.9748L37.6524 27.9748C37.652 27.9756 37.6502 27.9795 37.6431 27.9873C37.6353 27.9959 37.6183 28.0122 37.5859 28.0334C37.518 28.0778 37.3953 28.1348 37.1941 28.1811C36.7844 28.2753 36.1776 28.2962 35.3863 28.2011C33.8146 28.0122 31.7417 27.3942 29.5647 26.3657Z" stroke="#CBD5E0" stroke-width="2"/>
<path d="M33.2938 7.74962C33.5844 7.45425 33.944 7.23534 34.3403 7.11254C34.7366 6.98974 35.1573 6.96688 35.5646 7.04601C35.972 7.12514 36.3533 7.30377 36.6744 7.56592C36.9954 7.82806 37.2462 8.16551 37.4042 8.54802C37.5622 8.93053 37.6226 9.34614 37.5798 9.75761C37.537 10.1691 37.3925 10.5635 37.1591 10.9056C36.9258 11.2477 36.6109 11.5267 36.2427 11.7177C35.8746 11.9086 35.4646 12.0056 35.0496 11.9998H27" stroke="#CBD5E0" stroke-width="2" stroke-linecap="round" stroke-linejoin="round"/>
<path d="M8.29929 16.2504C8.00873 16.5458 7.64918 16.7647 7.25286 16.8875C6.85655 17.0103 6.43585 17.0331 6.02849 16.954C5.62113 16.8749 5.23983 16.6962 4.91878 16.4341C4.59772 16.1719 4.34695 15.8345 4.18892 15.452C4.0309 15.0695 3.97058 14.6539 4.01336 14.2424C4.05613 13.8309 4.20068 13.4365 4.43403 13.0944C4.66738 12.7523 4.98225 12.4733 5.35041 12.2823C5.71857 12.0914 6.12852 11.9944 6.5435 12.0002H14.5931" stroke="#CBD5E0" stroke-width="2" stroke-linecap="round" stroke-linejoin="round"/>
</svg>
