<svg width="42" height="42" viewBox="0 0 42 42" fill="none" xmlns="http://www.w3.org/2000/svg">
<path d="M33.75 16H8.25C5.90279 16 4 18.3505 4 21.25V37H38V21.25C38 18.3505 36.0972 16 33.75 16Z" stroke="white" stroke-width="2" stroke-linecap="round" stroke-linejoin="round"/>
<path d="M30 21L26 26.5H32L28 32" stroke="white" stroke-width="2" stroke-linecap="round" stroke-linejoin="round"/>
<rect x="6" y="37" width="30" height="4" stroke="white" stroke-width="2"/>
<path d="M3 41H39" stroke="white" stroke-width="2" stroke-linecap="round"/>
<path d="M4 22H14" stroke="white" stroke-width="2" stroke-linecap="round"/>
<path d="M4 27H14" stroke="white" stroke-width="2" stroke-linecap="round"/>
<path d="M4 32H14" stroke="white" stroke-width="2" stroke-linecap="round"/>
<path d="M11.5 12.8333C12.6603 12.8333 13.7731 12.4031 14.5936 11.6374C15.4141 10.8716 15.875 9.83297 15.875 8.75C15.875 7.58333 15.25 6.475 14 5.54167C12.75 4.60833 11.8125 3.20833 11.5 1.75C11.1875 3.20833 10.25 4.60833 9 5.54167C7.75 6.475 7.125 7.58333 7.125 8.75C7.125 9.83297 7.58594 10.8716 8.40641 11.6374C9.22688 12.4031 10.3397 12.8333 11.5 12.8333Z" stroke="white" stroke-width="2" stroke-linecap="round" stroke-linejoin="round"/>
</svg>
