<svg width="42" height="42" viewBox="0 0 42 42" fill="none" xmlns="http://www.w3.org/2000/svg">
<path d="M10.5 39.5L15.4894 5.57236C15.4964 5.52418 15.5 5.47556 15.5 5.42686V2.5C15.5 1.94772 15.9477 1.5 16.5 1.5H24.5C25.0523 1.5 25.5 1.94772 25.5 2.5V5.42686C25.5 5.47556 25.5036 5.52418 25.5106 5.57236L30.5 39.5" stroke="#2D3748" stroke-width="2" stroke-linecap="round"/>
<path d="M10 1H30" stroke="#2D3748" stroke-width="2" stroke-linecap="round"/>
<path d="M8.5 7H32.5" stroke="#2D3748" stroke-width="2" stroke-linecap="round"/>
<path d="M9 11H11.5" stroke="#2D3748" stroke-width="2" stroke-linecap="round"/>
<path d="M30 11H32.5" stroke="#2D3748" stroke-width="2" stroke-linecap="round"/>
<path d="M11 37.3098L13.7194 18.0004L28.0315 27.5232C28.6782 27.9535 28.6088 28.9247 27.9075 29.2586L11 37.3098Z" stroke="#2D3748" stroke-width="2" stroke-linecap="round"/>
<path d="M29.9192 37.3094L27.1998 17.9999L12.8877 27.5228C12.241 27.9531 12.3104 28.9242 13.0117 29.2582L29.9192 37.3094Z" stroke="#2D3748" stroke-width="2" stroke-linecap="round"/>
</svg>
